<svg width="19" height="18" viewBox="0 0 19 18" fill="none" xmlns="http://www.w3.org/2000/svg">
<g clip-path="url(#clip0_1_1947)">
<path d="M17.167 0H0.923077C0.690212 0 0.466858 0.092561 0.302224 0.257195C0.13759 0.421829 0.0450287 0.645183 0.0450287 0.878049V4.82927C0.0450287 5.06213 0.13759 5.28549 0.302224 5.45012C0.466858 5.61476 0.690212 5.70732 0.923077 5.70732H17.167C17.3998 5.70732 17.6232 5.61476 17.7878 5.45012C17.9525 5.28549 18.045 5.06213 18.045 4.82927V0.878049C18.045 0.645183 17.9525 0.421829 17.7878 0.257195C17.6232 0.092561 17.3998 0 17.167 0ZM17.606 4.82927C17.606 4.94561 17.5597 5.05738 17.4774 5.1397C17.3951 5.22201 17.2835 5.26829 17.167 5.26829H0.923077C0.806736 5.26829 0.694968 5.22201 0.612651 5.1397C0.530334 5.05738 0.484053 4.94561 0.484053 4.82927V0.878049C0.484053 0.761707 0.530334 0.649939 0.612651 0.567622C0.694968 0.485305 0.806553 0.439024 0.923077 0.439024H17.167C17.2833 0.439024 17.3951 0.485305 17.4774 0.567622C17.5597 0.649939 17.606 0.761524 17.606 0.878049V4.82927ZM9.48405 2.85366C9.48405 2.91183 9.46082 2.96762 9.41966 3.00878C9.3785 3.04994 9.32271 3.07317 9.26454 3.07317H2.02064C1.89936 3.07317 1.80113 2.97494 1.80113 2.85366C1.80113 2.73238 1.89936 2.63415 2.02064 2.63415H9.26454C9.32271 2.63415 9.3785 2.65738 9.41966 2.69854C9.46082 2.7397 9.48405 2.79549 9.48405 2.85366ZM16.1419 1.96024C16.187 1.9972 16.2158 2.05061 16.2214 2.1086C16.2273 2.16677 16.2097 2.22476 16.1726 2.26976L15.075 3.61317C15.0337 3.66421 14.9717 3.69402 14.906 3.69439C14.8396 3.69457 14.7767 3.66476 14.7348 3.61317L13.6372 2.26976C13.5602 2.17591 13.5739 2.03726 13.668 1.96024C13.762 1.88323 13.9005 1.89695 13.9775 1.99098L14.906 3.12805L15.8323 1.99098C15.8693 1.94579 15.9227 1.91707 15.9807 1.91122C16.0387 1.90555 16.0967 1.92311 16.1419 1.96024ZM17.167 6.14634H0.923077C0.690212 6.14634 0.466858 6.2389 0.302224 6.40354C0.13759 6.56817 0.0450287 6.79152 0.0450287 7.02439V10.9756C0.0450287 11.2085 0.13759 11.4318 0.302224 11.5965C0.466858 11.7611 0.690212 11.8537 0.923077 11.8537H17.167C17.3998 11.8537 17.6232 11.7611 17.7878 11.5965C17.9525 11.4318 18.045 11.2085 18.045 10.9756V7.02439C18.045 6.79152 17.9525 6.56817 17.7878 6.40354C17.6232 6.2389 17.3998 6.14634 17.167 6.14634ZM17.606 10.9756C17.606 11.092 17.5597 11.2037 17.4774 11.286C17.3951 11.3684 17.2835 11.4146 17.167 11.4146H0.923077C0.806736 11.4146 0.694968 11.3684 0.612651 11.286C0.530334 11.2037 0.484053 11.0921 0.484053 10.9756V7.02439C0.484053 6.90805 0.530334 6.79628 0.612651 6.71396C0.694968 6.63165 0.806553 6.58537 0.923077 6.58537H17.167C17.2833 6.58537 17.3951 6.63165 17.4774 6.71396C17.5597 6.79628 17.606 6.90805 17.606 7.02439V10.9756ZM9.48405 9C9.48405 9.05817 9.46082 9.11396 9.41966 9.15512C9.3785 9.19628 9.32271 9.21951 9.26454 9.21951H5.64259H2.02064C1.89936 9.21951 1.80113 9.12128 1.80113 9C1.80113 8.87872 1.89936 8.78049 2.02064 8.78049H9.26454C9.32271 8.78049 9.3785 8.80372 9.41966 8.84488C9.46082 8.88604 9.48405 8.94183 9.48405 9ZM16.1419 8.10659C16.187 8.14354 16.2158 8.19695 16.2214 8.25494C16.2273 8.31311 16.2097 8.3711 16.1726 8.4161L15.075 9.75951C15.0337 9.81055 14.9717 9.84037 14.906 9.84073C14.8396 9.84092 14.7767 9.8111 14.7348 9.75951L13.6372 8.4161C13.5602 8.32226 13.5739 8.1836 13.668 8.10659C13.762 8.02957 13.9005 8.04329 13.9775 8.13732L14.906 9.27439L15.8323 8.13732C15.8693 8.09213 15.9227 8.06342 15.9807 8.05756C16.0387 8.05189 16.0967 8.06945 16.1419 8.10659ZM17.167 12.2927H0.923077C0.690212 12.2927 0.466858 12.3852 0.302224 12.5499C0.13759 12.7145 0.0450287 12.9379 0.0450287 13.1707V17.122C0.0450287 17.3548 0.13759 17.5782 0.302224 17.7428C0.466858 17.9074 0.690212 18 0.923077 18H17.167C17.3998 18 17.6232 17.9074 17.7878 17.7428C17.9525 17.5782 18.045 17.3548 18.045 17.122V13.1707C18.045 12.9379 17.9525 12.7145 17.7878 12.5499C17.6232 12.3852 17.3998 12.2927 17.167 12.2927ZM17.606 17.122C17.606 17.2383 17.5597 17.3501 17.4774 17.4324C17.3951 17.5147 17.2835 17.561 17.167 17.561H0.923077C0.806736 17.561 0.694968 17.5147 0.612651 17.4324C0.530334 17.3501 0.484053 17.2385 0.484053 17.122V13.1707C0.484053 13.0544 0.530334 12.9426 0.612651 12.8603C0.694968 12.778 0.806553 12.7317 0.923077 12.7317H17.167C17.2833 12.7317 17.3951 12.778 17.4774 12.8603C17.5597 12.9426 17.606 13.0542 17.606 13.1707V17.122ZM9.48405 15.1463C9.48405 15.2045 9.46082 15.2603 9.41966 15.3015C9.3785 15.3426 9.32271 15.3659 9.26454 15.3659H2.02064C1.89936 15.3659 1.80113 15.2676 1.80113 15.1463C1.80113 15.0251 1.89936 14.9268 2.02064 14.9268H9.26454C9.32271 14.9268 9.3785 14.9501 9.41966 14.9912C9.46082 15.0324 9.48405 15.0882 9.48405 15.1463ZM16.1419 14.2529C16.187 14.2899 16.2158 14.3433 16.2214 14.4013C16.2273 14.4595 16.2097 14.5174 16.1726 14.5624L15.075 15.9059C15.0337 15.9569 14.9717 15.9867 14.906 15.9871C14.8396 15.9873 14.7767 15.9574 14.7348 15.9059L13.6372 14.5624C13.5602 14.4686 13.5739 14.3299 13.668 14.2529C13.762 14.1759 13.9005 14.1896 13.9775 14.2837L14.906 15.4207L15.8323 14.2837C15.8693 14.2385 15.9227 14.2098 15.9807 14.2039C16.0387 14.1982 16.0967 14.2158 16.1419 14.2529Z" fill="#093B42"/>
</g>
<defs>
<clipPath id="clip0_1_1947">
<rect width="18" height="18" fill="white" transform="translate(0.0450287)"/>
</clipPath>
</defs>
</svg>
