<svg width="21" height="18" viewBox="0 0 21 18" fill="none" xmlns="http://www.w3.org/2000/svg">
<path d="M19.4285 2.5452H18.357V1.47377C18.357 0.882709 17.8767 0.402344 17.2856 0.402344H12.6429C12.5482 0.402344 12.4571 0.439843 12.3902 0.506808L10.3518 2.54521H1.57143C0.980366 2.54521 0.5 3.02557 0.5 3.61664V13.6166C0.5 14.2077 0.980366 14.6881 1.57143 14.6881H2.64286V15.7595C2.64286 16.3506 3.12322 16.8309 3.71429 16.8309H19.4286C20.0196 16.8309 20.5 16.3506 20.5 15.7595V3.61664C20.5 3.02557 20.0195 2.5452 19.4285 2.5452ZM19.7856 3.61663V8.25937H3.35703V5.75926C3.35703 5.56194 3.51685 5.40211 3.71417 5.40211H12.6426C12.7373 5.40211 12.8283 5.36462 12.8953 5.29765L14.9337 3.25925H19.4283C19.6257 3.25925 19.7855 3.41907 19.7855 3.61639L19.7856 3.61663ZM1.5712 13.9737C1.37388 13.9737 1.21406 13.8138 1.21406 13.6165V3.61652C1.21406 3.41919 1.37388 3.25937 1.5712 3.25937H10.4997C10.5943 3.25937 10.6854 3.22187 10.7523 3.15491L12.7907 1.11651H17.2854C17.4827 1.11651 17.6425 1.27633 17.6425 1.47365V2.54508H14.7854C14.6907 2.54508 14.5997 2.58258 14.5327 2.64954L12.4943 4.68794H3.71394C3.12288 4.68794 2.64251 5.16831 2.64251 5.75937V13.9738L1.5712 13.9737ZM19.4283 16.1165H3.71406C3.51674 16.1165 3.35691 15.9567 3.35691 15.7594V8.97354H19.7855V15.7594C19.7855 15.9567 19.6257 16.1165 19.4283 16.1165Z" fill="#093B42" stroke="#093B42" stroke-width="0.6"/>
<path d="M14.4286 5.04501C14.4286 5.24233 14.5884 5.40215 14.7857 5.40215H18.7144C18.9117 5.40215 19.0716 5.24233 19.0716 5.04501C19.0716 4.84769 18.9117 4.68787 18.7144 4.68787H14.7857C14.5884 4.68787 14.4286 4.84769 14.4286 5.04501Z" fill="#093B42" stroke="#093B42" stroke-width="0.6"/>
</svg>
