<svg width="14" height="15" viewBox="0 0 14 15" fill="none" xmlns="http://www.w3.org/2000/svg">
<path d="M6.72399 0.52066C6.44248 0.52066 6.21345 0.766406 6.21345 1.07359V6.86396H0.817063C0.535554 6.86396 0.301758 7.10971 0.301758 7.41689C0.301758 7.72407 0.530782 7.96982 0.817063 7.96982H6.21345V13.7602C6.21345 14.0623 6.44248 14.3131 6.72876 14.3131C7.01504 14.3131 7.24406 14.0674 7.24406 13.7602V7.96982H12.6405C12.922 7.96982 13.1558 7.72407 13.1558 7.41689C13.1558 7.10971 12.9267 6.86396 12.6405 6.86396H7.24406V1.07359C7.24406 0.771526 7.01504 0.52066 6.72876 0.52066H6.72399Z" fill="white"/>
</svg>
